PathFileType	4	(X/Y/Z)	D:\TRACE\spotREDO_2-26-24\spot_justBody_Motion_2_7-v60.trc
DataRate	CameraRate	NumFrames	NumMarkers	Units	OrigDataRate	OrigDataStartFrame	OrigNumFrames
100.00	100.00	      31	9	mm	100.00	3501	      7000
Frame#	Time	front left toe			Front right toe			aft left toe			aft right toe			Arm			FL body			FR body			AL Body			AR Body			
		X1	Y1	Z1	X2	Y2	Z2	X3	Y3	Z3	X4	Y4	Z4	X5	Y5	Z5	X6	Y6	Z6	X7	Y7	Z7	X8	Y8	Z8	X9	Y9	Z9	

3501	35.000	-85.04833	8.37290	-178.05466	375.48792	15.85221	-81.59550	-172.37247	37.95579	250.15324	246.11238	47.27497	348.36188	192.45474	793.96686	-349.83057	105.34870	535.27277	-332.21454	257.70874	540.70245	-300.82462	-80.89523	587.24725	530.66992	57.52520	592.66693	560.96783	
3502	35.010	-83.60567	8.69692	-177.82852	376.50690	16.03594	-81.38525	-171.42552	37.81211	250.13167	247.15857	47.08207	348.58621	192.67593	793.67090	-350.40149	105.45153	535.18976	-332.43063	257.81104	540.48535	-301.17743	-80.65740	587.36035	530.37164	57.85883	592.82404	560.56042	
3503	35.020	-82.74088	8.96369	-177.65286	377.51114	16.25708	-81.23476	-170.27034	37.38320	250.27658	248.30220	46.48022	348.68539	193.00963	793.31122	-350.69656	105.97340	534.87000	-332.65637	258.10901	540.26849	-301.51050	-80.37970	587.47858	529.92987	57.99493	592.96277	560.24121	
3504	35.030	-81.85879	9.16334	-177.38570	378.35690	16.37146	-81.19479	-169.24458	36.78217	250.67918	249.34789	46.15128	348.96973	193.41119	793.09082	-351.11191	106.28557	534.56085	-333.01367	258.67297	540.02606	-301.79868	-80.01051	587.53217	529.62781	58.24104	593.10870	560.03918	
3505	35.040	-80.70261	9.37363	-177.19414	379.40692	16.39528	-80.90313	-168.04106	36.12432	250.93474	250.53795	45.46467	349.34958	193.71275	792.85883	-351.50317	106.56693	534.26233	-333.28354	258.99069	539.76038	-301.98096	-79.70425	587.58521	529.40637	58.69363	593.16211	559.86292	
3506	35.050	-79.51293	9.68898	-176.84714	380.86484	16.87924	-80.59237	-167.09723	35.85225	250.88034	251.35109	45.11950	349.34375	194.15987	792.67688	-351.84772	106.95951	533.98340	-333.57532	259.24323	539.52954	-302.23419	-79.23282	587.65662	529.12091	59.14278	593.14819	559.50629	
3507	35.060	-78.64182	9.91449	-176.39600	381.77524	17.19797	-80.51979	-165.91692	35.41845	250.97336	252.59009	44.44413	349.72028	194.54356	792.45172	-352.12485	107.26231	533.87335	-333.71225	259.77292	539.31146	-302.50537	-78.91677	587.76337	528.93903	59.26971	593.14288	559.09784	
3508	35.070	-77.44647	10.29963	-176.22665	382.93860	17.34800	-80.25565	-164.67253	34.75980	251.56999	253.76974	44.14655	349.92123	195.16415	792.14636	-352.38641	107.74101	533.66254	-334.02429	260.22556	539.06049	-302.73279	-78.41187	587.68286	528.57159	59.43058	593.19611	558.83038	
3509	35.080	-76.35026	10.47861	-175.99150	383.84808	17.63291	-80.09096	-163.86435	34.52557	251.74789	254.78937	43.38359	350.13763	195.41016	791.98834	-352.60681	108.20845	533.52081	-334.28552	260.53464	538.81616	-302.97461	-77.87859	587.79144	528.38367	60.40781	593.02747	558.58313	
3510	35.090	-75.36337	10.98144	-175.84111	384.99417	17.97050	-79.70840	-162.75256	34.04444	251.86995	255.62830	42.89396	350.12595	196.10910	791.73749	-352.89481	108.84196	533.26862	-334.47699	261.09518	538.56494	-303.20993	-77.48366	587.72540	528.08130	60.71627	593.00616	558.44214	
3511	35.100	-74.10091	11.08546	-175.74612	386.59311	18.27605	-79.42564	-161.53017	33.50940	252.27101	257.20663	42.41925	350.45828	196.69521	791.63068	-353.09784	109.37418	533.12976	-334.63373	261.75296	538.46631	-303.30249	-76.64195	587.55396	527.99261	60.71309	593.04834	558.25897	
3512	35.110	-73.10532	11.52207	-175.36343	387.14993	18.51470	-79.27928	-160.40741	32.95235	252.48895	258.12128	41.79134	350.68164	197.25557	791.49927	-353.27774	109.76273	533.00012	-334.75906	262.24557	538.38037	-303.55612	-76.47944	587.57385	527.97546	61.57521	592.94208	558.06097	
3513	35.120	-72.26542	12.04174	-175.05046	388.36047	18.86651	-78.91936	-159.67418	32.59531	252.77002	259.05865	41.17501	351.01859	197.95645	791.37567	-353.47791	110.37892	532.95520	-335.04260	262.78824	538.09753	-303.70880	-75.71881	587.62256	527.82269	62.76240	592.80994	558.06885	
3514	35.130	-70.86865	12.43655	-174.56552	389.31033	18.94124	-78.85226	-158.20941	31.82107	253.07489	260.33887	40.38510	351.18509	198.50372	791.19495	-353.60229	111.13287	532.77753	-335.16373	263.37408	537.94720	-303.84503	-75.08631	587.49738	527.58197	63.13754	592.75995	557.92914	
3515	35.140	-69.84858	12.56287	-174.32173	390.30472	19.23506	-78.60198	-157.17665	31.16815	253.47363	261.02774	40.06380	351.41174	199.17671	791.00653	-353.74631	111.69202	532.68915	-335.24072	264.09375	537.76404	-304.00153	-74.34686	587.29749	527.40118	63.37579	592.54785	557.67206	
3516	35.150	-68.82973	12.90095	-174.07608	391.79745	19.76050	-78.35880	-156.07268	30.68014	253.74432	262.62534	39.20870	351.55740	200.13228	790.85321	-353.74268	112.22464	532.51044	-335.11371	264.61505	537.58441	-304.06955	-73.98113	587.09290	527.30774	64.70419	592.36017	557.56256	
3517	35.160	-67.51943	13.30197	-173.92087	392.72958	19.82170	-78.01118	-155.14337	30.17368	254.06946	263.41879	38.61523	351.98447	200.75397	790.83704	-353.79868	113.04608	532.53857	-335.42136	265.42111	537.56659	-304.24783	-73.17362	586.96747	527.09882	65.30768	592.31750	557.46692	
3518	35.170	-66.42002	13.51767	-173.50533	393.99759	20.14144	-77.79060	-153.84988	29.70057	254.59245	265.03558	38.02990	352.26096	201.37134	790.87152	-353.81931	113.72397	532.47028	-335.60480	266.42331	537.37073	-303.55728	-72.25304	586.86603	527.07037	65.96877	592.11230	557.39038	
3519	35.180	-65.50718	14.24050	-173.18951	394.88000	20.26159	-77.52200	-152.60774	29.17689	254.67943	265.84674	37.61319	352.55737	202.02995	790.81836	-353.90384	114.45655	532.45020	-335.70871	266.85083	537.73572	-304.34808	-71.55293	586.69629	526.99622	66.84361	591.88202	557.46234	
3520	35.190	-64.39722	14.38723	-172.92339	396.02017	20.58211	-77.17719	-151.85403	28.82571	254.84387	266.68616	36.53626	352.72586	202.96605	790.80988	-353.84631	115.22472	532.39777	-335.76682	267.75079	537.68964	-304.37643	-70.78740	586.44843	527.12610	67.66560	591.58862	557.44849	
3521	35.200	-63.30925	14.87434	-172.61615	396.89713	20.84150	-76.98606	-150.32498	28.03727	255.39948	268.20499	36.06823	353.09262	203.61128	790.85608	-353.94394	115.98884	532.25726	-335.67062	268.40460	537.61243	-304.42548	-70.10355	586.16852	527.02179	68.36216	591.36609	557.43488	
3522	35.210	-62.39120	15.40370	-172.31688	398.30270	21.16596	-76.53577	-149.46071	27.41504	255.55002	269.11136	35.40306	353.37750	204.51358	790.72833	-353.80292	116.78629	532.25433	-335.65103	269.29480	537.44312	-304.41180	-69.10467	585.82629	527.00842	69.10918	591.05865	557.28760	
3523	35.220	-61.01396	15.70304	-172.09789	399.29736	21.32603	-76.25359	-148.17659	26.87729	255.64984	270.59616	34.66099	353.59607	205.32513	790.70007	-353.67084	117.66070	532.31580	-335.84262	270.19550	537.44489	-304.35754	-68.36789	585.54474	526.92328	69.81802	590.69867	557.20703	
3524	35.230	-59.99695	16.04275	-171.73041	400.48486	21.52640	-75.75890	-147.16478	26.44001	256.22632	271.25388	33.77194	353.79193	206.25948	790.83563	-353.59665	118.68356	532.37329	-335.76794	270.79550	537.43219	-304.53448	-67.39641	585.18170	526.98248	70.33368	590.51642	557.06781	
3525	35.240	-58.95168	16.50258	-171.40294	401.66476	21.82940	-75.46471	-146.04402	25.88184	256.44595	272.47159	33.08774	354.13553	207.08321	790.85272	-353.59201	119.36095	532.36798	-335.70490	271.99368	537.17358	-303.95599	-66.57184	584.93866	527.06909	71.95368	590.05054	557.09479	
3526	35.250	-57.77456	16.78672	-170.91226	402.50812	22.15796	-75.22711	-145.13257	25.62118	256.67850	273.94238	32.67797	354.43100	207.92993	790.87628	-353.51010	120.22427	532.40118	-335.75732	272.73694	537.12402	-303.76776	-65.82854	584.60114	526.93695	72.47041	589.86920	557.18726	
3527	35.260	-56.75942	17.17463	-170.67163	403.65964	22.40969	-75.05995	-143.79851	24.71877	257.05481	274.60303	31.77874	354.84561	208.89438	790.82184	-353.23062	120.99557	532.44348	-335.68808	273.68106	537.51752	-304.39639	-65.04777	584.31726	526.91327	73.38853	589.46008	557.28882	
3528	35.270	-55.72401	17.67212	-170.24747	404.80005	22.80815	-74.76630	-142.85112	24.10585	257.31979	275.84772	31.14014	355.15082	209.85503	790.82013	-353.07526	122.15321	532.49493	-335.70560	274.34750	537.52924	-304.36417	-64.04479	583.93793	526.98334	74.29189	589.17169	557.46594	
3529	35.280	-54.48765	18.07729	-169.94623	405.85019	22.88511	-74.33963	-141.69124	23.56355	257.67496	277.06104	30.45769	355.52103	210.59036	790.99927	-352.96561	122.94540	532.54041	-335.69064	275.23529	537.55212	-304.36868	-63.09357	583.67603	527.24792	75.33241	588.73187	557.58612	
3530	35.290	-53.55119	18.53863	-169.78125	406.93671	23.08158	-73.93018	-140.88098	23.15903	257.80057	277.97806	29.77618	355.84744	211.74835	791.11353	-352.81598	123.76286	532.63538	-335.44525	276.28827	537.48529	-304.34219	-62.33433	583.26971	527.37738	76.36840	588.29089	557.64893	
3531	35.300	-52.65379	18.97129	-169.50653	407.82236	23.26840	-73.63244	-139.66991	22.39848	258.40189	279.14471	28.70730	356.07425	212.72723	791.16962	-352.48083	124.65542	532.76715	-335.41980	277.34412	537.28021	-303.52289	-61.29775	582.80109	527.54333	76.99767	587.95996	557.97119	
